<svg width="1000" height="1000" viewBox="0 0 1000 1000" xmlns="http://www.w3.org/2000/svg"><defs/><path fill="#32be16" transform="matrix(3.425567847052798 0 0 3.425567847052798 -74.82197469422336 -129.6708571034426)" d="M 145.23341256086 81.64218885463 L 114.66341256086 102.79218885463 L 132.66341256086 109.08218885463 L 113.51341256086 115.77218885463 L 106.82341256086 134.90218885463 L 100.13341256086 115.77218885463 L 97.33341256086 114.77218885463 L 71.14341256086 132.92218885463 L 92.44341256086 132.92218885463 L 92.44341256086 176.24218885463 C 101.44341256086 180.17218885463 130.03341256086 188.24218885463 170.84341256086 158.07218885463 C 168.8922423269 154.82190849289 169.65386479312 150.62870615075 172.62341256086 148.27218885463 L 177.22341256086 144.63218885463 L 180.95341256086 141.34218885463 C 183.75185496163 138.90232324651 186.17762878778 136.06551552205 188.15341256086 132.92218885463 C 189.15341256086 131.45218885463 189.99341256086 129.92218885463 190.82341256086 128.30218885463 C 192.73881386917 124.51906284511 194.38619876624 120.60610602063 195.75341256086 116.59218885463 Z M 143.67341256086 162.51218885463 L 130.08341256086 162.51218885463 L 130.08341256086 148.91218885463 L 143.67341256086 148.91218885463 Z M 143.67341256086 146.51218885463 L 130.08341256086 146.51218885463 L 130.08341256086 132.91218885463 L 143.67341256086 132.91218885463 Z M 159.94341256086 162.51218885463 L 146.33341256086 162.51218885463 L 146.33341256086 148.91218885463 L 159.93341256086 148.91218885463 Z M 159.94341256086 146.51218885463 L 146.33341256086 146.51218885463 L 146.33341256086 132.91218885463 L 159.93341256086 132.91218885463 Z"/><path fill="#32be16" transform="matrix(3.425567847052798 0 0 3.425567847052798 -74.82197469422336 -129.6708571034426)" d="M 262.77341256086 170.60218885463 C 261.97341256086 167.66218885463 261.06341256086 164.80218885463 260.06341256086 162.04218885463 L 259.64341256086 160.89218885463 L 259.53341256086 160.64218885463 L 257.53341256086 155.64218885463 C 254.79065579034 149.33260578087 251.44160215982 143.30430924592 247.53341256086 137.64218885463 L 245.68341256086 135.00218885463 L 245.31341256086 134.42218885463 L 245.31341256086 134.42218885463 L 245.16341256086 134.20218885463 L 245.07341256086 134.06218885463 L 242.33341256086 130.83218885463 C 237.91318463146 125.38363659284 232.95106125564 120.39805956163 227.52341256086 115.95218885463 L 227.36341256086 115.81218885463 L 227.41341256086 115.72218885463 L 225.41341256086 114.21218885463 L 223.90341256086 112.97218885463 L 223.83341256086 113.04218885463 L 223.78341256086 113.04218885463 C 219.61500241698 109.91137782664 215.2270396026 107.0840994253 210.65341256086 104.58218885463 L 204.95341256086 101.47218885463 L 203.17341256086 107.71218885463 C 202.06341256086 111.60218885463 200.88341256086 115.48218885463 199.52341256086 119.26218885463 C 198.42837701178 122.35382366669 197.17675925504 125.38774510903 195.77341256086 128.35218885463 C 195.01341256086 129.95218885463 194.21341256086 131.48218885463 193.37341256086 132.97218885463 C 190.91756085013 137.41100243047 187.7060729788 141.38729141763 183.88341256086 144.72218885463 L 180.04341256086 148.12218885463 L 181.11341256086 149.45218885463 L 198.01341256086 170.87218885463 L 212.23341256086 188.87218885463 L 213.63341256086 190.62218885463 L 217.16341256086 187.62218885463 L 217.63341256086 187.28218885463 C 228.33341256086 179.42218885463 243.33341256086 177.77218885463 258.00341256086 177.18218885463 L 264.46341256086 176.89218885463 Z M 214.56341256086 183.04218885463 L 214.32341256086 183.10218885463 L 211.77341256086 179.86218885463 L 218.77341256086 173.57218885463 L 210.26341256086 177.93218885463 L 202.55341256086 168.18218885463 L 211.63341256086 158.62218885463 L 200.81341256086 165.98218885463 L 198.01341256086 162.42218885463 L 191.79341256086 154.54218885463 L 198.01341256086 146.65218885463 L 199.44341256086 144.85218885463 L 198.01341256086 146.18218885463 L 190.48341256086 152.93218885463 L 187.19341256086 148.78218885463 C 187.20208471203 148.74265889342 187.20208471203 148.70171881584 187.19341256086 148.66218885463 C 191.54807043377 144.87965804497 195.19491349951 140.35242575259 197.96341256086 135.29218885463 C 198.41341256086 134.54218885463 198.83341256086 133.74218885463 199.23341256086 132.96218885463 C 201.02552303049 129.52080907845 202.57593599761 125.95886894278 203.87341256086 122.30218885463 C 205.54341256086 117.85218885463 206.87341256086 113.39218885463 208.12341256086 109.12218885463 C 212.06643224345 111.17516837736 215.84146120571 113.53581536351 219.41341256086 116.18218885463 L 213.74341256086 129.00218885463 L 212.65341256086 131.44218885463 L 214.54341256086 129.58218885463 L 224.23341256086 119.94218885463 C 229.39671669126 124.17702646152 234.1205378923 128.92094902937 238.33341256086 134.10218885463 L 227.47341256086 147.47218885463 L 243.24341256086 140.61218885463 C 246.97168884024 146.00966995497 250.17304800894 151.75269398668 252.80341256086 157.76218885463 L 237.29341256086 163.07218885463 L 255.22341256086 163.82218885463 C 256.17341256086 166.49218885463 257.04341256086 169.20218885463 257.79341256086 171.95218885463 C 243.53341256086 172.57218885463 226.85341256086 174.06218885463 214.56341256086 183.04218885463 Z"/><path fill="#32be16" transform="matrix(3.425567847052798 0 0 3.425567847052798 -74.82197469422336 -129.6708571034426)" d="M 212.19341256086 192.03218885463 L 209.10341256086 194.48218885463 C 207.74799784957 195.5328095451 205.80117345079 195.30612451237 204.72341256086 193.97218885463 L 198.01341256086 185.46218885463 L 174.87341256086 156.11218885463 C 174.35712341562 155.47048837386 174.12032525013 154.64825081143 174.21622958326 153.83024326415 C 174.31213391639 153.01223571688 174.73269683008 152.26706807408 175.38341256086 151.76218885463 L 178.46341256086 149.31218885463 L 198.01341256086 174.08218885463 Z"/><path fill="#03a0e3" transform="matrix(3.425567847052798 0 0 3.425567847052798 -74.82197469422336 -129.6708571034426)" d="M 180.33341256086 170.24218885463 C 134.83341256086 205.24218885463 105.33341256086 192.24218885463 92.42341256086 182.13218885463 C 89.60423572271 180.00200143305 87.06724031259 177.52213042289 84.87341256086 174.75218885463 C 87.2375644239 176.48543984706 89.7743463094 177.96997667041 92.44341256086 179.18218885463 C 127.44341256086 195.47218885463 172.89341256086 160.77218885463 172.89341256086 160.77218885463 Z"/><path fill="#32be16" transform="matrix(3.425567847052798 0 0 3.425567847052798 -74.82197469422336 -129.6708571034426)" d="M 189.39341256086 181.70218885463 C 177.71341256086 191.63218885463 167.02341256086 198.28218885463 157.29341256086 202.41218885463 C 136.52341256086 211.27218885463 120.13341256086 208.79218885463 107.84341256086 202.41218885463 C 102.13062127518 199.41063197105 96.93220697612 195.51857243416 92.44341256086 190.88218885463 C 87.20376520846 185.61815492672 82.81766574163 179.56871158517 79.44341256086 172.95218885463 C 83.19035524183 177.74981046868 87.56249389217 182.02441679528 92.44341256086 185.66218885463 C 129.57341256086 212.90218885463 174.15341256086 177.86218885463 181.49341256086 171.66218885463 Z"/><path fill="#03a0e3" transform="matrix(3.425567847052798 0 0 3.425567847052798 -74.82197469422336 -129.6708571034426)" d="M 196.33341256086 190.44218885463 C 191.55071821518 194.73953667017 186.51504359111 198.74670480604 181.25341256086 202.44218885463 C 138.15341256086 232.44218885463 110.56341256086 214.97218885463 98.25341256086 202.44218885463 C 96.17044894634 200.3258549869 94.24529838628 198.05979234849 92.49341256086 195.66218885463 C 91.49341256086 194.33218885463 90.98341256086 193.44218885463 90.83341256086 193.18218885463 C 91.41341256086 193.75218885463 91.94341256086 194.31218885463 92.49341256086 194.84218885463 C 95.38689530935 197.67891348798 98.55210066335 200.2244754658 101.94341256086 202.44218885463 C 123.15341256086 216.28218885463 146.12341256086 210.97218885463 163.52341256086 202.44218885463 C 173.50001878225 197.4800996755 182.77149040927 191.21168360267 191.09341256086 183.80218885463 Z"/><path fill="#32be16" transform="matrix(3.425567847052798 0 0 3.425567847052798 -74.82197469422336 -129.6708571034426)" d="M 126.01341256086 109.08218885463 L 111.79341256086 114.06218885463 L 106.82341256086 128.27218885463 L 101.84341256086 114.06218885463 L 99.55341256086 113.26218885463 L 87.62341256086 109.08218885463 L 101.84341256086 104.10218885463 L 106.82341256086 89.89218885463 L 111.79341256086 104.10218885463 L 112.44341256086 104.33218885463 L 126.01341256086 109.08218885463 Z"/><path id="text" fill="#2c2b2a" transform="matrix(1.4976633200179272 0 0 1.4976633200179272 -2.444186538269257 725.7112940067078)" d="M 152.79740571338 2.15641557514 C 156.63740571338 4.14041557514 158.55740571338 7.37241557514 158.55740571338 11.85241557514 C 158.55740571338 14.66841557514 157.66140571338 16.84441557514 155.86940571338 18.38041557514 C 154.07740571338 19.91641557514 151.74140571338 20.68441557514 148.86140571338 20.68441557514 C 146.87740571338 20.68441557514 145.21340571338 20.33241557514 143.86940571338 19.62841557514 C 144.31740571338 18.02841557514 144.54140571338 16.17241557514 144.54140571338 14.06041557514 C 144.54140571338 11.50041557514 143.98140571338 9.50041557514 142.86140571338 8.06041557514 C 141.74140571338 6.62041557514 139.96540571338 5.90041557514 137.53340571338 5.90041557514 C 135.42140571338 5.90041557514 133.74140571338 6.47641557514 132.49340571338 7.62841557514 C 131.24540571338 8.78041557514 130.62140571338 10.41241557514 130.62140571338 12.52441557514 C 130.62140571338 14.70041557514 131.19740571338 16.63641557514 132.34940571338 18.33241557514 C 133.50140571338 20.02841557514 134.92540571338 21.48441557514 136.62140571338 22.70041557514 C 138.31740571338 23.91641557514 140.63740571338 25.38841557514 143.58140571338 27.11641557514 C 147.03740571338 29.16441557514 149.83740571338 30.98841557514 151.98140571338 32.58841557514 C 154.12540571338 34.18841557514 155.94940571338 36.20441557514 157.45340571338 38.63641557514 C 158.95740571338 41.06841557514 159.70940571338 43.98041557514 159.70940571338 47.37241557514 C 159.70940571338 53.70841557514 157.46940571338 58.49241557514 152.98940571338 61.72441557514 C 148.50940571338 64.95641557514 142.68540571338 66.57241557514 135.51740571338 66.57241557514 C 129.56540571338 66.57241557514 124.55740571338 65.51641557514 120.49340571338 63.40441557514 C 116.42940571338 61.29241557514 114.39740571338 57.86841557514 114.39740571338 53.13241557514 C 114.39740571338 50.31641557514 115.30940571338 48.04441557514 117.13340571338 46.31641557514 C 118.95740571338 44.58841557514 121.27740571338 43.72441557514 124.09340571338 43.72441557514 C 126.20540571338 43.72441557514 127.86940571338 44.07641557514 129.08540571338 44.78041557514 C 128.63740571338 46.76441557514 128.41340571338 48.46041557514 128.41340571338 49.86841557514 C 128.41340571338 56.52441557514 131.16540571338 59.85241557514 136.66940571338 59.85241557514 C 139.22940571338 59.85241557514 141.30940571338 59.13241557514 142.90940571338 57.69241557514 C 144.50940571338 56.25241557514 145.30940571338 54.31641557514 145.30940571338 51.88441557514 C 145.30940571338 49.70841557514 144.73340571338 47.77241557514 143.58140571338 46.07641557514 C 142.42940571338 44.38041557514 140.98940571338 42.90841557514 139.26140571338 41.66041557514 C 137.53340571338 40.41241557514 135.22940571338 38.92441557514 132.34940571338 37.19641557514 C 128.89340571338 35.14841557514 126.09340571338 33.32441557514 123.94940571338 31.72441557514 C 121.80540571338 30.12441557514 119.98140571338 28.10841557514 118.47740571338 25.67641557514 C 116.97340571338 23.24441557514 116.22140571338 20.36441557514 116.22140571338 17.03641557514 C 116.22140571338 13.26041557514 117.24540571338 10.02841557514 119.29340571338 7.34041557514 C 121.34140571338 4.65241557514 124.07740571338 2.62041557514 127.50140571338 1.24441557514 C 130.92540571338 -0.13158442486 134.65340571338 -0.81958442486 138.68540571338 -0.81958442486 C 144.25340571338 -0.81958442486 148.95740571338 0.17241557514 152.79740571338 2.15641557514 Z M 189.85340571338 65.03641557514 C 187.54940571338 66.06041557514 184.95740571338 66.57241557514 182.07740571338 66.57241557514 C 177.14940571338 66.57241557514 172.98940571338 65.29241557514 169.59740571338 62.73241557514 C 166.20540571338 60.17241557514 164.50940571338 56.62041557514 164.50940571338 52.07641557514 C 164.50940571338 46.06041557514 167.29340571338 41.96441557514 172.86140571338 39.78841557514 C 178.42940571338 37.61241557514 185.43740571338 36.52441557514 193.88540571338 36.52441557514 L 193.88540571338 28.17241557514 C 193.88540571338 25.16441557514 193.46940571338 22.86041557514 192.63740571338 21.26041557514 C 191.80540571338 19.66041557514 190.17340571338 18.86041557514 187.74140571338 18.86041557514 C 185.43740571338 18.86041557514 183.64540571338 19.54841557514 182.36540571338 20.92441557514 C 181.08540571338 22.30041557514 180.44540571338 24.17241557514 180.44540571338 26.54041557514 C 180.44540571338 27.56441557514 180.63740571338 29.10041557514 181.02140571338 31.14841557514 C 180.57340571338 31.46841557514 179.90140571338 31.70841557514 179.00540571338 31.86841557514 C 178.10940571338 32.02841557514 177.27740571338 32.10841557514 176.50940571338 32.10841557514 C 173.88540571338 32.10841557514 171.70940571338 31.48441557514 169.98140571338 30.23641557514 C 168.25340571338 28.98841557514 167.38940571338 27.18041557514 167.38940571338 24.81241557514 C 167.38940571338 21.16441557514 169.45340571338 18.38041557514 173.58140571338 16.46041557514 C 177.70940571338 14.54041557514 182.65340571338 13.58041557514 188.41340571338 13.58041557514 C 195.32540571338 13.58041557514 200.41340571338 14.95641557514 203.67740571338 17.70841557514 C 206.94140571338 20.46041557514 208.57340571338 25.10041557514 208.57340571338 31.62841557514 L 208.57340571338 54.86041557514 C 208.57340571338 56.65241557514 208.79740571338 58.22041557514 209.24540571338 59.56441557514 C 209.69340571338 60.90841557514 210.46140571338 62.09241557514 211.54940571338 63.11641557514 C 210.84540571338 64.01241557514 209.80540571338 64.70041557514 208.42940571338 65.18041557514 C 207.05340571338 65.66041557514 205.66140571338 65.90041557514 204.25340571338 65.90041557514 C 201.88540571338 65.90041557514 199.90140571338 65.40441557514 198.30140571338 64.41241557514 C 196.70140571338 63.42041557514 195.61340571338 61.99641557514 195.03740571338 60.14041557514 C 193.88540571338 62.38041557514 192.15740571338 64.01241557514 189.85340571338 65.03641557514 Z M 192.10940571338 56.87641557514 C 193.29340571338 54.82841557514 193.88540571338 52.33241557514 193.88540571338 49.38841557514 L 193.88540571338 41.32441557514 C 184.41340571338 41.32441557514 179.67740571338 44.78041557514 179.67740571338 51.69241557514 C 179.67740571338 54.12441557514 180.26940571338 56.10841557514 181.45340571338 57.64441557514 C 182.63740571338 59.18041557514 184.34940571338 59.94841557514 186.58940571338 59.94841557514 C 189.08540571338 59.94841557514 190.92540571338 58.92441557514 192.10940571338 56.87641557514 Z M 219.22940571338 15.50041557514 L 231.22940571338 14.34841557514 L 231.90140571338 22.98841557514 C 234.33340571338 16.71641557514 239.35740571338 13.58041557514 246.97340571338 13.58041557514 C 250.68540571338 13.58041557514 253.66140571338 14.26841557514 255.90140571338 15.64441557514 C 258.14140571338 17.02041557514 259.80540571338 19.08441557514 260.89340571338 21.83641557514 C 263.45340571338 16.33241557514 268.12540571338 13.58041557514 274.90940571338 13.58041557514 C 280.41340571338 13.58041557514 284.31740571338 15.08441557514 286.62140571338 18.09241557514 C 288.92540571338 21.10041557514 290.07740571338 25.61241557514 290.07740571338 31.62841557514 L 290.07740571338 54.86041557514 C 290.07740571338 56.65241557514 290.30140571338 58.22041557514 290.74940571338 59.56441557514 C 291.19740571338 60.90841557514 291.96540571338 62.09241557514 293.05340571338 63.11641557514 C 292.34940571338 64.01241557514 291.27740571338 64.70041557514 289.83740571338 65.18041557514 C 288.39740571338 65.66041557514 286.97340571338 65.90041557514 285.56540571338 65.90041557514 C 282.23740571338 65.90041557514 279.70940571338 65.05241557514 277.98140571338 63.35641557514 C 276.25340571338 61.66041557514 275.38940571338 59.14841557514 275.38940571338 55.82041557514 L 275.38940571338 32.39641557514 C 275.38940571338 28.68441557514 275.03740571338 25.83641557514 274.33340571338 23.85241557514 C 273.62940571338 21.86841557514 272.02940571338 20.87641557514 269.53340571338 20.87641557514 C 266.58940571338 20.87641557514 264.65340571338 22.34841557514 263.72540571338 25.29241557514 C 262.79740571338 28.23641557514 262.33340571338 32.01241557514 262.33340571338 36.62041557514 L 262.33340571338 64.46041557514 L 247.64540571338 64.46041557514 L 247.64540571338 32.39641557514 C 247.64540571338 28.62041557514 247.29340571338 25.75641557514 246.58940571338 23.80441557514 C 245.88540571338 21.85241557514 244.22140571338 20.87641557514 241.59740571338 20.87641557514 C 238.46140571338 20.87641557514 236.39740571338 22.31641557514 235.40540571338 25.19641557514 C 234.41340571338 28.07641557514 233.91740571338 31.88441557514 233.91740571338 36.62041557514 L 233.91740571338 64.46041557514 L 219.22940571338 64.46041557514 L 219.22940571338 15.50041557514 Z M 342.39740571338 20.73241557514 C 345.08540571338 25.50041557514 346.42940571338 31.69241557514 346.42940571338 39.30841557514 C 346.42940571338 47.75641557514 344.39740571338 54.41241557514 340.33340571338 59.27641557514 C 336.26940571338 64.14041557514 330.23740571338 66.57241557514 322.23740571338 66.57241557514 C 319.86940571338 66.57241557514 317.78940571338 66.31641557514 315.99740571338 65.80441557514 L 315.99740571338 81.74041557514 L 301.30940571338 82.98841557514 L 301.30940571338 15.50041557514 L 313.30940571338 14.34841557514 L 313.88540571338 22.98841557514 C 316.44540571338 16.71641557514 321.46940571338 13.58041557514 328.95740571338 13.58041557514 C 335.22940571338 13.58041557514 339.70940571338 15.96441557514 342.39740571338 20.73241557514 Z M 317.58140571338 24.66841557514 C 316.52540571338 27.19641557514 315.99740571338 30.44441557514 315.99740571338 34.41241557514 L 315.99740571338 58.50841557514 C 318.17340571338 60.04441557514 320.44540571338 60.81241557514 322.81340571338 60.81241557514 C 326.26940571338 60.81241557514 328.50940571338 58.86041557514 329.53340571338 54.95641557514 C 330.55740571338 51.05241557514 331.06940571338 45.99641557514 331.06940571338 39.78841557514 C 331.06940571338 34.02841557514 330.60540571338 29.43641557514 329.67740571338 26.01241557514 C 328.74940571338 22.58841557514 326.68540571338 20.87641557514 323.48540571338 20.87641557514 C 320.60540571338 20.87641557514 318.63740571338 22.14041557514 317.58140571338 24.66841557514 Z M 377.14940571338 65.03641557514 C 374.84540571338 66.06041557514 372.25340571338 66.57241557514 369.37340571338 66.57241557514 C 364.44540571338 66.57241557514 360.28540571338 65.29241557514 356.89340571338 62.73241557514 C 353.50140571338 60.17241557514 351.80540571338 56.62041557514 351.80540571338 52.07641557514 C 351.80540571338 46.06041557514 354.58940571338 41.96441557514 360.15740571338 39.78841557514 C 365.72540571338 37.61241557514 372.73340571338 36.52441557514 381.18140571338 36.52441557514 L 381.18140571338 28.17241557514 C 381.18140571338 25.16441557514 380.76540571338 22.86041557514 379.93340571338 21.26041557514 C 379.10140571338 19.66041557514 377.46940571338 18.86041557514 375.03740571338 18.86041557514 C 372.73340571338 18.86041557514 370.94140571338 19.54841557514 369.66140571338 20.92441557514 C 368.38140571338 22.30041557514 367.74140571338 24.17241557514 367.74140571338 26.54041557514 C 367.74140571338 27.56441557514 367.93340571338 29.10041557514 368.31740571338 31.14841557514 C 367.86940571338 31.46841557514 367.19740571338 31.70841557514 366.30140571338 31.86841557514 C 365.40540571338 32.02841557514 364.57340571338 32.10841557514 363.80540571338 32.10841557514 C 361.18140571338 32.10841557514 359.00540571338 31.48441557514 357.27740571338 30.23641557514 C 355.54940571338 28.98841557514 354.68540571338 27.18041557514 354.68540571338 24.81241557514 C 354.68540571338 21.16441557514 356.74940571338 18.38041557514 360.87740571338 16.46041557514 C 365.00540571338 14.54041557514 369.94940571338 13.58041557514 375.70940571338 13.58041557514 C 382.62140571338 13.58041557514 387.70940571338 14.95641557514 390.97340571338 17.70841557514 C 394.23740571338 20.46041557514 395.86940571338 25.10041557514 395.86940571338 31.62841557514 L 395.86940571338 54.86041557514 C 395.86940571338 56.65241557514 396.09340571338 58.22041557514 396.54140571338 59.56441557514 C 396.98940571338 60.90841557514 397.75740571338 62.09241557514 398.84540571338 63.11641557514 C 398.14140571338 64.01241557514 397.10140571338 64.70041557514 395.72540571338 65.18041557514 C 394.34940571338 65.66041557514 392.95740571338 65.90041557514 391.54940571338 65.90041557514 C 389.18140571338 65.90041557514 387.19740571338 65.40441557514 385.59740571338 64.41241557514 C 383.99740571338 63.42041557514 382.90940571338 61.99641557514 382.33340571338 60.14041557514 C 381.18140571338 62.38041557514 379.45340571338 64.01241557514 377.14940571338 65.03641557514 Z M 379.40540571338 56.87641557514 C 380.58940571338 54.82841557514 381.18140571338 52.33241557514 381.18140571338 49.38841557514 L 381.18140571338 41.32441557514 C 371.70940571338 41.32441557514 366.97340571338 44.78041557514 366.97340571338 51.69241557514 C 366.97340571338 54.12441557514 367.56540571338 56.10841557514 368.74940571338 57.64441557514 C 369.93340571338 59.18041557514 371.64540571338 59.94841557514 373.88540571338 59.94841557514 C 376.38140571338 59.94841557514 378.22140571338 58.92441557514 379.40540571338 56.87641557514 Z M 421.78940571338 6.86041557514 C 421.78940571338 13.38841557514 421.46940571338 18.02841557514 420.82940571338 20.78041557514 C 422.30140571338 18.34841557514 424.23740571338 16.54041557514 426.63740571338 15.35641557514 C 429.03740571338 14.17241557514 431.74140571338 13.58041557514 434.74940571338 13.58041557514 C 440.31740571338 13.58041557514 444.28540571338 15.06841557514 446.65340571338 18.04441557514 C 449.02140571338 21.02041557514 450.20540571338 25.54841557514 450.20540571338 31.62841557514 L 450.20540571338 54.86041557514 C 450.20540571338 56.65241557514 450.42940571338 58.22041557514 450.87740571338 59.56441557514 C 451.32540571338 60.90841557514 452.09340571338 62.09241557514 453.18140571338 63.11641557514 C 452.47740571338 64.01241557514 451.40540571338 64.70041557514 449.96540571338 65.18041557514 C 448.52540571338 65.66041557514 447.10140571338 65.90041557514 445.69340571338 65.90041557514 C 442.36540571338 65.90041557514 439.83740571338 65.05241557514 438.10940571338 63.35641557514 C 436.38140571338 61.66041557514 435.51740571338 59.14841557514 435.51740571338 55.82041557514 L 435.51740571338 32.39641557514 C 435.51740571338 28.68441557514 435.14940571338 25.83641557514 434.41340571338 23.85241557514 C 433.67740571338 21.86841557514 432.02940571338 20.87641557514 429.46940571338 20.87641557514 C 426.33340571338 20.87641557514 424.26940571338 22.31641557514 423.27740571338 25.19641557514 C 422.28540571338 28.07641557514 421.78940571338 31.88441557514 421.78940571338 36.62041557514 L 421.78940571338 64.46041557514 L 407.10140571338 64.46041557514 L 407.10140571338 -2.73958442486 L 421.78940571338 -4.27558442486 L 421.78940571338 6.86041557514 Z M 473.77340571338 54.38041557514 C 475.34140571338 55.59641557514 476.12540571338 57.29241557514 476.12540571338 59.46841557514 C 476.12540571338 61.70841557514 475.29340571338 63.42041557514 473.62940571338 64.60441557514 C 471.96540571338 65.78841557514 469.82140571338 66.38041557514 467.19740571338 66.38041557514 C 464.63740571338 66.38041557514 462.55740571338 65.80441557514 460.95740571338 64.65241557514 C 459.35740571338 63.50041557514 458.55740571338 61.83641557514 458.55740571338 59.66041557514 C 458.55740571338 57.42041557514 459.40540571338 55.67641557514 461.10140571338 54.42841557514 C 462.79740571338 53.18041557514 464.95740571338 52.55641557514 467.58140571338 52.55641557514 C 470.14140571338 52.55641557514 472.20540571338 53.16441557514 473.77340571338 54.38041557514 Z M 498.54140571338 -4.37158442486 C 500.10940571338 -3.15558442486 500.89340571338 -1.45958442486 500.89340571338 0.71641557514 C 500.89340571338 2.95641557514 500.06140571338 4.66841557514 498.39740571338 5.85241557514 C 496.73340571338 7.03641557514 494.58940571338 7.62841557514 491.96540571338 7.62841557514 C 489.40540571338 7.62841557514 487.30940571338 7.03641557514 485.67740571338 5.85241557514 C 484.04540571338 4.66841557514 483.22940571338 3.02041557514 483.22940571338 0.90841557514 C 483.22940571338 -1.33158442486 484.07740571338 -3.07558442486 485.77340571338 -4.32358442486 C 487.46940571338 -5.57158442486 489.62940571338 -6.19558442486 492.25340571338 -6.19558442486 C 494.87740571338 -6.19558442486 496.97340571338 -5.58758442486 498.54140571338 -4.37158442486 Z M 499.16540571338 54.86041557514 C 499.16540571338 56.65241557514 499.38940571338 58.22041557514 499.83740571338 59.56441557514 C 500.28540571338 60.90841557514 501.05340571338 62.09241557514 502.14140571338 63.11641557514 C 501.43740571338 64.01241557514 500.36540571338 64.70041557514 498.92540571338 65.18041557514 C 497.48540571338 65.66041557514 496.06140571338 65.90041557514 494.65340571338 65.90041557514 C 491.32540571338 65.90041557514 488.79740571338 65.05241557514 487.06940571338 63.35641557514 C 485.34140571338 61.66041557514 484.47740571338 59.14841557514 484.47740571338 55.82041557514 L 484.47740571338 15.50041557514 L 499.16540571338 15.50041557514 L 499.16540571338 54.86041557514 Z M 510.49340571338 15.50041557514 L 522.49340571338 14.34841557514 L 523.16540571338 22.98841557514 C 525.59740571338 16.71641557514 530.62140571338 13.58041557514 538.23740571338 13.58041557514 C 543.80540571338 13.58041557514 547.75740571338 15.08441557514 550.09340571338 18.09241557514 C 552.42940571338 21.10041557514 553.59740571338 25.61241557514 553.59740571338 31.62841557514 L 553.59740571338 54.86041557514 C 553.59740571338 56.65241557514 553.82140571338 58.22041557514 554.26940571338 59.56441557514 C 554.71740571338 60.90841557514 555.48540571338 62.09241557514 556.57340571338 63.11641557514 C 555.86940571338 64.01241557514 554.79740571338 64.70041557514 553.35740571338 65.18041557514 C 551.91740571338 65.66041557514 550.49340571338 65.90041557514 549.08540571338 65.90041557514 C 545.75740571338 65.90041557514 543.22940571338 65.05241557514 541.50140571338 63.35641557514 C 539.77340571338 61.66041557514 538.90940571338 59.14841557514 538.90940571338 55.82041557514 L 538.90940571338 32.39641557514 C 538.90940571338 28.62041557514 538.55740571338 25.75641557514 537.85340571338 23.80441557514 C 537.14940571338 21.85241557514 535.48540571338 20.87641557514 532.86140571338 20.87641557514 C 529.72540571338 20.87641557514 527.66140571338 22.31641557514 526.66940571338 25.19641557514 C 525.67740571338 28.07641557514 525.18140571338 31.88441557514 525.18140571338 36.62041557514 L 525.18140571338 64.46041557514 L 510.49340571338 64.46041557514 L 510.49340571338 15.50041557514 Z"/></svg>